<?xml version="1.0" encoding="UTF-8" standalone="no"?>
<!-- Created with Inkscape (http://www.inkscape.org/) -->

<svg
   version="1.1"
   id="svg2"
   width="2829.3333"
   height="2829.3333"
   viewBox="0 0 2829.3333 2829.3333"
   sodipodi:docname="vecteezy_virtual-reality-360-degree-isolated-icon_52532776.eps"
   xmlns:inkscape="http://www.inkscape.org/namespaces/inkscape"
   xmlns:sodipodi="http://sodipodi.sourceforge.net/DTD/sodipodi-0.dtd"
   xmlns="http://www.w3.org/2000/svg"
   xmlns:svg="http://www.w3.org/2000/svg">
  <defs
     id="defs6" />
  <sodipodi:namedview
     id="namedview4"
     pagecolor="#ffffff"
     bordercolor="#000000"
     borderopacity="0.25"
     inkscape:showpageshadow="2"
     inkscape:pageopacity="0.0"
     inkscape:pagecheckerboard="0"
     inkscape:deskcolor="#d1d1d1" />
  <g
     id="g8"
     inkscape:groupmode="layer"
     inkscape:label="ink_ext_XXXXXX"
     transform="matrix(1.3333333,0,0,-1.3333333,0,2829.3333)">
    <g
       id="g10"
       transform="scale(0.1)">
      <path
         d="m 4202.78,11604.8 c 53.08,127.5 142.42,285.3 297.2,453.3 232.22,251.5 613.48,528.7 1253.83,746.2 639.9,217.2 1538.41,372 2789.74,371.9 h 4026.25 1.2 c 28.9,-0.4 319.4,-5.6 741.1,-44.3 316.3,-29 706.4,-76.9 1114.7,-155.2 612.2,-116.9 1265.6,-305.2 1765.1,-588.3 249.9,-141.1 460.3,-304.8 612.9,-488.3 76.5,-91.9 138.9,-188.6 186.5,-291.4 41.9,-90.5 71.8,-186.1 90.1,-288.4 -13.8,-56.3 -42.3,-162.9 -89,-299 -52.4,-153 -127.8,-343 -229.8,-539.5 -152.9,-295.2 -366.4,-603.4 -644.9,-830.3 -139.3,-113.8 -294.4,-208 -468.8,-274.2 -174.6,-66.2 -368.7,-105 -590.7,-105.1 -105.1,0 -216.4,8.8 -334.6,28 -72.1,11.8 -146,-8.8 -201.7,-56.2 -55.7,-47.3 -87.8,-116.9 -87.8,-190 V 4880.8 c -1265.1,400 -2524.2,536.7 -3654.7,536.7 C 8927.96,5417 7419.02,5053.7 6779.12,4871.9 V 9054 c 0,73.1 -32.17,142.7 -87.85,190 -55.67,47.4 -129.54,68 -201.67,56.2 -118.24,-19.2 -229.55,-28 -334.61,-28 -198.88,0 -375.41,31.3 -535.54,85.3 -279.64,94.5 -511.94,260.3 -707.26,463.8 -292.69,304.4 -495.24,694 -619.71,1006.7 -62.43,156.2 -105.81,292.8 -133.21,389.1 -13.71,48.1 -23.43,86.2 -29.58,111.5 -0.46,1.9 -0.76,3.3 -1.19,5 4.53,42.5 20.21,141.1 74.28,271.2 z M 16982.5,3941.9 c -114.9,-392.8 -309.7,-677.7 -541.9,-896 -174.2,-163.2 -370.6,-287.7 -569.1,-382.1 -297.5,-141.7 -599.3,-214.6 -824.6,-250.6 -41,-6.6 -78.5,-11.6 -113.9,-16 v 6379.7 c 42.2,-2.2 84,-3.6 125.2,-3.6 251.7,-0.1 484.3,40.2 695.1,111.5 369.6,124.7 669.7,342.6 907.9,591.3 170.2,178 310,371.6 425.3,563.5 V 4731.5 c 0,-304.3 -38.6,-565 -104,-789.6 z M 5508.07,2591.5 c -166.69,65.9 -336.64,151.7 -496.66,262.3 -240.26,166.3 -457.89,386.4 -618.58,686.9 -160.26,300.7 -265.85,685.1 -266.18,1190.8 v 5308.8 c 161.41,-268.9 370.68,-541.9 644.86,-768.4 176.03,-145.2 379.04,-270.5 610.27,-359 231.07,-88.6 490.03,-139.8 773.21,-139.6 41.17,0 83.04,1.4 125.23,3.6 V 2397 c -47.54,5.9 -100.46,13.6 -157.75,23.5 -176,30.6 -392.23,83.1 -614.4,171 z m -1076.62,90.3 c 218.45,-204.6 459.37,-356 695.91,-468.5 355.1,-168.7 700.84,-251 960,-292.7 259.2,-41.5 432.25,-41.9 442.32,-41.9 65.68,0 129.93,26.6 176.38,73 46.45,46.5 73.06,110.7 73.06,176.4 v 2224.2 c 498.72,149.9 2061.9,566.9 4000.28,566.3 1136.2,0.1 2399.9,-143.6 3654.7,-562.4 V 2128.1 c 0,-65.7 26.6,-129.9 73,-176.4 46.5,-46.4 110.7,-73 176.4,-73 10.2,0 188.7,0.4 454.7,43.9 199.6,32.7 448.6,89.6 713.1,190.5 198.4,75.7 405.6,176.3 606,311.1 300.4,201.7 586,482.3 793.5,863.6 207.9,380.9 335,859.1 334.6,1443.7 v 6582 c 0,6.7 -1.3,13.1 -1.8,19.7 -0.4,5.2 0.1,10.3 -0.7,15.6 -0.4,3.3 -1.2,6.6 -1.7,9.9 -0.2,1 -0.3,1.9 -0.5,2.9 -44.4,296.6 -164.8,561.1 -335.1,785.5 -151.3,199.7 -340.3,369.5 -551.8,515.7 -370.6,255.4 -811.1,440.6 -1264.2,580.6 -679.5,209.4 -1389.1,315.9 -1932,371.8 -542.6,55.6 -918,59.8 -923.5,59.9 h -2.7 -4027.85 c -1185.32,-0.1 -2084.12,-133.8 -2769.79,-340.7 -514.09,-155 -908.36,-351.7 -1209.66,-563.9 -452.31,-317.7 -692.12,-671.8 -812.06,-950.8 -120.57,-279.2 -124.24,-480.7 -124.29,-506.2 v -6582 c -0.03,-346.6 44.22,-655.4 123.91,-929.1 138.98,-479.2 388.41,-848.3 679.79,-1120.6"
         style="fill:#231f20;fill-opacity:1;fill-rule:nonzero;stroke:none"
         id="path12" />
      <path
         d="m 7404.19,6527 c 107.06,-86.7 264.14,-70.2 350.86,36.8 h -0.01 L 9626.45,8874.5 11442.1,6566.6 c 85.1,-108.3 242,-127 350.3,-41.8 108.2,85.2 127,242 41.8,350.3 l -970.4,1233.4 1222.5,1183.3 1374.7,-2360.6 c 69.3,-119.1 222,-159.4 341.1,-90.1 119,69.3 159.3,222.1 90,341.1 v 0 l -1534.9,2635.9 c -38.6,66.2 -105.6,111.1 -181.5,121.6 -75.9,10.4 -152.5,-14.6 -207.6,-67.9 l -1414.4,-1369.1 -728.34,925.9 c -46.84,59.5 -118.54,94.7 -194.29,95.2 -75.75,0.5 -147.95,-33.6 -195.61,-92.5 L 7367.34,6877.8 c -86.71,-107 -70.21,-264.1 36.85,-350.8"
         style="fill:#231f20;fill-opacity:1;fill-rule:nonzero;stroke:none"
         id="path14" />
      <path
         d="m 8497.29,11359.8 c 91.2,90.8 214.51,146.2 353.26,146.3 138.78,-0.1 262.11,-55.5 353.3,-146.3 90.81,-91.2 146.2,-214.5 146.33,-353.3 -0.13,-138.7 -55.53,-262.1 -146.33,-353.3 -91.2,-90.8 -214.52,-146.2 -353.3,-146.3 -138.75,0.1 -262.06,55.5 -353.26,146.3 -90.8,91.2 -146.21,214.6 -146.33,353.3 0.12,138.8 55.53,262.1 146.33,353.3 z M 8850.55,10008 c 274.96,-0.1 526.17,112.1 706.08,292.5 180.31,179.9 292.58,431.1 292.45,706 0.13,275 -112.15,526.2 -292.45,706.1 -179.91,180.3 -431.12,292.6 -706.08,292.4 -274.94,0.2 -526.16,-112.1 -706.05,-292.4 -180.3,-179.9 -292.57,-431.1 -292.44,-706.1 -0.13,-274.9 112.14,-526.1 292.43,-706 179.9,-180.4 431.12,-292.6 706.06,-292.5"
         style="fill:#231f20;fill-opacity:1;fill-rule:nonzero;stroke:none"
         id="path16" />
      <path
         d="m 7296.81,17754.4 c 108.48,-96.8 241.01,-176.3 396,-248.6 232.42,-107.7 516.71,-197.7 844.9,-272.1 223.72,-50.6 468.07,-93.4 728.36,-127.9 l -654.11,-565.9 716.34,-51.6 904.3,783 -782.88,904.3 -716.35,51.5 535.59,-618.2 c -177.03,24.7 -344.94,53.3 -501.15,85.5 -206.12,42.5 -392.46,91 -553.9,143.7 -242.03,78.4 -428.49,168.7 -536.64,249.4 -54.29,39.9 -87.93,76.5 -103.51,100.6 -7.96,12 -11.72,20.8 -13.53,26.3 -1.77,5.6 -1.9,8 -1.96,10.4 0.2,3.5 0.05,7.6 6.35,21 5.52,11.3 16.78,28.8 36.77,50.2 34.64,37.6 95.93,85.6 181.43,133.9 128.15,72.9 309.08,146.8 529.21,212.2 220.24,65.7 479.89,123.7 768.64,170.5 135.99,22 228.36,150.1 206.32,286.1 -22.05,136 -150.16,228.4 -286.15,206.3 -266.75,-43.2 -512.98,-95.8 -734.36,-157 -166.06,-45.9 -318.14,-96.6 -454.97,-152.5 -205.2,-84.4 -376.4,-178.3 -511.14,-297.1 -67.1,-59.7 -125.57,-126.6 -169.53,-205.8 -43.88,-78.6 -71.75,-171.6 -71.47,-267.8 -0.31,-101.8 30.9,-199.6 79.13,-281.2 42.25,-72 96.51,-133.7 158.31,-189.2"
         style="fill:#231f20;fill-opacity:1;fill-rule:nonzero;stroke:none"
         id="path18" />
      <path
         d="m 13238,18142.8 -535.6,618.3 c 177,-24.7 344.9,-53.4 501.1,-85.6 206.2,-42.4 392.5,-91 553.9,-143.7 242.1,-78.3 428.5,-168.6 536.7,-249.4 54.3,-39.8 87.9,-76.5 103.5,-100.5 7.9,-12.1 11.7,-20.8 13.5,-26.3 1.8,-5.7 1.9,-8 2,-10.5 -0.2,-3.4 -0.1,-7.6 -6.4,-21 -5.5,-11.3 -16.8,-28.8 -36.8,-50.2 -34.6,-37.5 -95.9,-85.6 -181.4,-133.8 -128.1,-73 -309,-146.8 -529.2,-212.2 -220.2,-65.7 -479.9,-123.8 -768.6,-170.6 -136,-22 -228.4,-150.1 -206.3,-286.1 22,-136 150.1,-228.4 286.1,-206.3 266.8,43.2 513,95.8 734.4,157 166,45.9 318.1,96.6 454.9,152.5 205.2,84.5 376.4,178.4 511.2,297.1 67.1,59.7 125.5,126.7 169.5,205.9 43.9,78.6 71.7,171.5 71.5,267.7 0.3,101.8 -30.9,199.6 -79.2,281.3 -42.2,71.9 -96.5,133.7 -158.3,189.1 -108.5,96.8 -241,176.4 -396,248.6 -232.4,107.8 -516.7,197.7 -844.8,272.1 -223.8,50.6 -468.1,93.4 -728.4,127.9 l 654.1,565.9 -716.3,51.6 -904.3,-782.9 782.8,-904.3 716.4,-51.6"
         style="fill:#231f20;fill-opacity:1;fill-rule:nonzero;stroke:none"
         id="path20" />
      <path
         d="m 7859.12,15036.4 c -137.76,0 -249.44,-111.6 -249.44,-249.4 v -156.8 c -0.14,-178.1 72.87,-341.6 189.69,-458 116.4,-116.8 279.89,-189.8 457.95,-189.7 h 430.01 c 178.05,-0.1 341.55,72.9 457.95,189.7 116.82,116.4 189.82,279.9 189.69,458 v 538.6 c 0,0 0.01,0 0.01,0 0,0.1 -0.01,0.1 -0.01,0.1 v 538.6 c 0.13,178 -72.87,341.5 -189.68,457.9 -116.41,116.9 -279.91,189.9 -457.96,189.7 h -430.01 c -178.06,0.2 -341.55,-72.8 -457.96,-189.7 -116.82,-116.4 -189.82,-279.9 -189.68,-457.9 v -106.9 c 0,-137.7 111.68,-249.4 249.44,-249.4 137.76,0 249.45,111.7 249.45,249.4 h -0.01 v 106.9 c 0.14,41.9 16.27,77.5 43.58,105.2 27.69,27.3 63.3,43.4 105.18,43.5 h 430.01 c 41.87,-0.1 77.47,-16.2 105.18,-43.5 27.3,-27.7 43.44,-63.3 43.56,-105.2 v -289.2 h -363.75 c -137.77,0 -249.45,-111.7 -249.45,-249.5 0,-137.7 111.68,-249.4 249.45,-249.4 h 363.75 v -289.2 c -0.12,-41.9 -16.26,-77.5 -43.56,-105.2 -27.71,-27.3 -63.31,-43.5 -105.18,-43.6 h -430.01 c -41.87,0.1 -77.49,16.3 -105.19,43.6 -27.3,27.7 -43.43,63.3 -43.57,105.2 v 156.8 c 0,137.8 -111.68,249.4 -249.44,249.4"
         style="fill:#231f20;fill-opacity:1;fill-rule:nonzero;stroke:none"
         id="path22" />
      <path
         d="m 12118.3,15707.5 c 0.1,41.9 16.2,77.5 43.5,105.2 27.7,27.3 63.3,43.4 105.2,43.5 h 430 c 41.9,-0.1 77.5,-16.2 105.2,-43.5 27.3,-27.7 43.4,-63.3 43.6,-105.2 v -1077.3 c -0.2,-41.9 -16.3,-77.5 -43.6,-105.2 -27.7,-27.3 -63.3,-43.5 -105.2,-43.6 h -430 c -41.9,0.1 -77.5,16.3 -105.2,43.6 -27.3,27.7 -43.4,63.3 -43.5,105.2 z m 148.7,-1725 h 430 c 178.1,-0.1 341.6,72.9 458,189.7 116.8,116.4 189.8,279.9 189.7,458 v 1077.3 c 0.1,178 -72.9,341.5 -189.7,457.9 -116.4,116.9 -279.9,189.9 -458,189.7 h -430 c -178,0.2 -341.5,-72.8 -458,-189.7 -116.8,-116.4 -189.8,-279.9 -189.6,-457.9 v -1077.3 c -0.2,-178.1 72.8,-341.6 189.7,-458 116.4,-116.8 279.9,-189.8 457.9,-189.7"
         style="fill:#231f20;fill-opacity:1;fill-rule:nonzero;stroke:none"
         id="path24" />
      <path
         d="m 10870.5,14919.4 6.7,-2.8 2.8,-6.7 v -279.7 c -0.1,-41.9 -16.2,-77.5 -43.5,-105.2 -27.7,-27.3 -63.4,-43.5 -105.2,-43.6 h -430 c -41.9,0.1 -77.5,16.3 -105.2,43.6 -27.3,27.7 -43.5,63.3 -43.6,105.2 v 289.2 z m -1216.89,788.1 v -1077.3 c -0.12,-178.1 72.88,-341.6 189.69,-458 116.42,-116.8 279.9,-189.8 458,-189.7 h 430 c 178,-0.1 341.5,72.9 457.9,189.7 116.8,116.4 189.8,279.9 189.7,458 v 279.7 c 0.1,139.6 -57.3,268.2 -148.9,359.5 -91.2,91.6 -219.9,149 -359.5,148.9 h -718 v 289.2 c 0.1,41.9 16.3,77.5 43.6,105.2 27.7,27.3 63.3,43.4 105.2,43.5 h 405.4 c 61.7,-12.3 114.8,-20.6 154.3,-27.5 8,-1.4 15.4,-2.8 22.3,-4.1 7.2,-53.9 31.1,-105.1 69.8,-143.8 46.4,-46.5 110.7,-73.1 176.4,-73.1 65.7,0 129.9,26.6 176.4,73.1 46.4,46.4 73,110.7 73,176.4 v 42.8 c 0,22.2 -3.8,43.3 -9.3,63.8 -0.9,5.2 -1.1,10.3 -2.2,15.5 -7.5,36.3 -19.7,74 -38.6,110.5 -16.4,32 -38.1,62.6 -63,88.6 -43.9,46 -95,75.7 -139.5,94.3 -67.7,27.7 -123.8,37.1 -178.2,47.2 -54.3,9.5 -107.5,17.6 -165.1,29.8 -17.7,3.8 -33.7,5.4 -51.7,5.4 h -430 c -178.1,0.2 -341.58,-72.8 -458,-189.7 -116.82,-116.4 -189.81,-279.9 -189.69,-457.9"
         style="fill:#231f20;fill-opacity:1;fill-rule:nonzero;stroke:none"
         id="path26" />
      <path
         d="m 13450.1,16420.2 c 0,-147.1 119.3,-266.4 266.4,-266.4 147.1,0 266.4,119.3 266.4,266.4 0,147.1 -119.3,266.4 -266.4,266.4 -147.1,0 -266.4,-119.3 -266.4,-266.4"
         style="fill:#231f20;fill-opacity:1;fill-rule:nonzero;stroke:none"
         id="path28" />
    </g>
  </g>
</svg>
