<svg width="180" height="60" viewBox="0 0 180 60" fill="none" xmlns="http://www.w3.org/2000/svg">
<g filter="url(#filter0_d_201_554)">
<path d="M16 12C16 5.37258 21.3726 0 28 0H152C158.627 0 164 5.37258 164 12V16C164 22.6274 158.627 28 152 28H28C21.3726 28 16 22.6274 16 16V12Z" fill="white" shape-rendering="crispEdges"/>
<path d="M77.299 18V10.7273H79.8913C80.4548 10.7273 80.9223 10.8243 81.294 11.0185C81.6681 11.2126 81.9474 11.4813 82.1321 11.8246C82.3168 12.1655 82.4091 12.5597 82.4091 13.0071C82.4091 13.4522 82.3156 13.844 82.1286 14.1825C81.9439 14.5187 81.6645 14.7803 81.2905 14.9673C80.9188 15.1544 80.4512 15.2479 79.8878 15.2479H77.924V14.3033H79.7884C80.1435 14.3033 80.4323 14.2524 80.6548 14.1506C80.8797 14.0488 81.0443 13.9008 81.1484 13.7067C81.2526 13.5125 81.3047 13.2794 81.3047 13.0071C81.3047 12.7325 81.2514 12.4946 81.1449 12.2933C81.0407 12.0921 80.8762 11.9382 80.6513 11.8317C80.4287 11.7228 80.1364 11.6683 79.7741 11.6683H78.3963V18H77.299ZM80.8892 14.7188L82.6861 18H81.4361L79.6747 14.7188H80.8892ZM87.7109 12.6378C87.6731 12.3016 87.5168 12.0412 87.2422 11.8565C86.9676 11.6695 86.6219 11.576 86.2053 11.576C85.907 11.576 85.6489 11.6233 85.4311 11.718C85.2133 11.8104 85.044 11.9382 84.9233 12.1016C84.8049 12.2625 84.7457 12.446 84.7457 12.652C84.7457 12.8248 84.786 12.974 84.8665 13.0994C84.9493 13.2249 85.0571 13.3303 85.1896 13.4155C85.3246 13.4983 85.469 13.5682 85.6229 13.625C85.7768 13.6795 85.9247 13.7244 86.0668 13.7599L86.777 13.9446C87.009 14.0014 87.2469 14.0784 87.4908 14.1754C87.7346 14.2725 87.9607 14.4003 88.169 14.5589C88.3774 14.7176 88.5455 14.9141 88.6733 15.1484C88.8035 15.3828 88.8686 15.6634 88.8686 15.9901C88.8686 16.402 88.7621 16.7678 88.549 17.0874C88.3383 17.407 88.0317 17.6591 87.6293 17.8438C87.2292 18.0284 86.745 18.1207 86.1768 18.1207C85.6323 18.1207 85.1612 18.0343 84.7635 17.8615C84.3658 17.6887 84.0545 17.4437 83.8295 17.1264C83.6046 16.8068 83.4804 16.428 83.4567 15.9901H84.5575C84.5788 16.2528 84.6641 16.4718 84.8132 16.647C84.9647 16.8198 85.1577 16.9489 85.392 17.0341C85.6288 17.117 85.888 17.1584 86.1697 17.1584C86.4799 17.1584 86.7557 17.1098 86.9972 17.0128C87.241 16.9134 87.4328 16.776 87.5724 16.6009C87.7121 16.4233 87.782 16.2161 87.782 15.9794C87.782 15.764 87.7204 15.5876 87.5973 15.4503C87.4766 15.313 87.312 15.1993 87.1037 15.1094C86.8977 15.0194 86.6645 14.9401 86.4041 14.8714L85.5447 14.6371C84.9624 14.4785 84.5007 14.2453 84.1598 13.9375C83.8213 13.6297 83.652 13.2225 83.652 12.7159C83.652 12.2969 83.7656 11.9311 83.9929 11.6186C84.2202 11.3061 84.5279 11.0634 84.9162 10.8906C85.3045 10.7154 85.7424 10.6278 86.2301 10.6278C86.7225 10.6278 87.157 10.7143 87.5334 10.8871C87.9122 11.0599 88.2105 11.2978 88.4283 11.6009C88.6461 11.9015 88.7597 12.2472 88.7692 12.6378H87.7109ZM90.8155 10.7273L92.8397 16.6506H92.9213L94.9455 10.7273H96.1316L93.5144 18H92.2466L89.6294 10.7273H90.8155ZM97.1818 18V10.7273H99.7741C100.34 10.7273 100.809 10.8303 101.18 11.0362C101.552 11.2422 101.83 11.5239 102.015 11.8814C102.2 12.2365 102.292 12.6366 102.292 13.0817C102.292 13.5291 102.198 13.9316 102.011 14.2891C101.827 14.6442 101.547 14.9259 101.173 15.1342C100.802 15.3402 100.334 15.4432 99.7706 15.4432H97.9879V14.5128H99.6712C100.029 14.5128 100.319 14.4512 100.541 14.3281C100.764 14.2027 100.927 14.0322 101.031 13.8168C101.135 13.6013 101.188 13.3563 101.188 13.0817C101.188 12.8071 101.135 12.5632 101.031 12.3501C100.927 12.1371 100.763 11.9702 100.538 11.8494C100.315 11.7287 100.022 11.6683 99.657 11.6683H98.2791V18H97.1818Z" fill="#121212"/>
</g>
<defs>
<filter id="filter0_d_201_554" x="0" y="0" width="180" height="60" filterUnits="userSpaceOnUse" color-interpolation-filters="sRGB">
<feFlood flood-opacity="0" result="BackgroundImageFix"/>
<feColorMatrix in="SourceAlpha" type="matrix" values="0 0 0 0 0 0 0 0 0 0 0 0 0 0 0 0 0 0 127 0" result="hardAlpha"/>
<feOffset dy="16"/>
<feGaussianBlur stdDeviation="8"/>
<feComposite in2="hardAlpha" operator="out"/>
<feColorMatrix type="matrix" values="0 0 0 0 0 0 0 0 0 0 0 0 0 0 0 0 0 0 0.15 0"/>
<feBlend mode="normal" in2="BackgroundImageFix" result="effect1_dropShadow_201_554"/>
<feBlend mode="normal" in="SourceGraphic" in2="effect1_dropShadow_201_554" result="shape"/>
</filter>
</defs>
</svg>
